<svg width="448" height="119" xmlns="http://www.w3.org/2000/svg" xmlns:xlink="http://www.w3.org/1999/xlink"><defs><linearGradient x1="15.2%" y1="0%" x2="84.8%" y2="100%" id="c"><stop stop-color="#70A1FF" offset="0%"/><stop stop-color="#645BFF" offset="100%"/></linearGradient><linearGradient x1="50%" y1="0%" x2="50%" y2="100%" id="d"><stop stop-color="#C8B9FF" offset="0%"/><stop stop-color="#83A4FF" offset="100%"/></linearGradient><linearGradient x1="68.2%" y1="31.7%" x2="37.7%" y2="68.3%" id="e"><stop stop-color="#9852FF" offset="0%"/><stop stop-color="#2A58D6" offset="100%"/></linearGradient><linearGradient x1="50%" y1="0%" x2="50%" y2="100%" id="f"><stop stop-color="#C8B9FF" offset="0%"/><stop stop-color="#83A4FF" offset="100%"/></linearGradient><linearGradient x1="37.6%" y1="0%" x2="62.4%" y2="100%" id="g"><stop stop-color="#70A1FF" offset="0%"/><stop stop-color="#645BFF" offset="100%"/></linearGradient><linearGradient x1="65.3%" y1="0%" x2="39.7%" y2="100%" id="h"><stop stop-color="#9852FF" offset="0%"/><stop stop-color="#2A58D6" offset="100%"/></linearGradient><linearGradient x1="50%" y1="0%" x2="50%" y2="100%" id="i"><stop stop-color="#C8B9FF" offset="0%"/><stop stop-color="#83A4FF" offset="100%"/></linearGradient><linearGradient x1="22.4%" y1="0%" x2="81%" y2="87.6%" id="k"><stop stop-color="#F1FCFF" offset="0%"/><stop stop-color="#B5D4FF" offset="100%"/></linearGradient><linearGradient x1="12.5%" y1="35.6%" x2="112.5%" y2="64.4%" id="l"><stop stop-color="#591D7D" offset="0%"/><stop stop-color="#404CF8" offset="100%"/></linearGradient><path d="M64.7 2.6l35.6 17.1c3.4 1.7 5.8 4.8 6.7 8.4l8.8 38.6c.8 3.6 0 7.5-2.4 10.4l-24.7 31c-2.3 2.9-5.9 4.6-9.6 4.6H39.5c-3.7 0-7.3-1.7-9.7-4.7L5.2 77.1C2.9 74.2 2 70.3 2.8 66.7L11.6 28c.8-3.6 3.3-6.7 6.7-8.4L53.9 2.6c3.4-1.6 7.4-1.6 10.8 0z" id="a"/><path id="j" d="M59 23.7l29 14L95 69l-20 25.1H42.9l-20-25.1 7-31.4z"/></defs><g fill="none" fill-rule="evenodd"><mask id="b" fill="#fff"><use xlink:href="#a"/></mask><g mask="url(#b)"><path d="M60.1 1l34 15.3L104.5 59l-9 11.3-9.8-42.2a4.9 4.9 0 00-2.6-3.2L46.8 7 60 1z" fill="url(#c)" transform="rotate(.2 345.2 -108.3)"/><path d="M103.5 57.3l-9.4-41 15.8 4.1 5 39.8-26.2 35H75.8l26.8-33.8c.9-1.1 1.2-2.6 1-4z" fill="url(#d)" transform="rotate(.2 345.2 -108.3)"/><path d="M118 73.1l-24.8 32.3-42.3.2-8-10.4 43.4-.1c1.5 0 3-.7 3.9-2l24.7-33 3 13z" fill="url(#e)" transform="rotate(.2 345.2 -108.3)"/><path d="M53.8 105L95 105l-10.3 10.3-39-.4-.6-2.1-24.3-31 2.8-11.3L50 103.2c1 1.2 2.3 1.8 3.8 1.8z" fill="url(#f)" transform="rotate(.2 345.2 -108.3)"/><path d="M22.5 83.6l25.6 31.2h-15L9.8 83.3l9.4-39.7 11.5-5.7-9.3 41.6c-.3 1.4 0 3 1 4.1z" fill="url(#g)" transform="rotate(.2 345.2 -108.3)"/><path d="M.9 73.6l9-37.4 37.8-17.4 12.3 6-38.4 18.4a4.9 4.9 0 00-2.6 3.2l-9.1 37-2.3-.7L1 73.6z" fill="url(#h)" transform="rotate(.2 345.2 -108.3)"/><path d="M46.8 7.1L83.2 25c1.3.6 2.2 1.8 2.6 3.2L88.5 39 49.7 20a4.9 4.9 0 00-4.2-.1L10 36.2l2.4-13 34.5-16z" fill="url(#i)" transform="rotate(.2 345.2 -108.3)"/></g><mask id="m" fill="#fff"><use xlink:href="#j"/></mask><use fill="url(#k)" xlink:href="#j"/><path d="M71 43.6L55 69.6a1.1 1.1 0 01-1.8.2l-7-7.4c-.2-.3-.5-.4-.8-.4H32.4a1.1 1.1 0 00-.9 1.9l15.9 19.7c.2.2.5.4.9.4h12.6c.4 0 .8-.2 1-.6l23-38.7a1.1 1.1 0 00-1-1.7H72c-.3 0-.7.2-1 .6z" fill="url(#l)" mask="url(#m)"/><path d="M154.2 54h.2l19.5-19.2h8.5l-21.3 20 22.6 23.8h-8.8l-20.5-22.7h-.2v22.7h-6V34.8h6V54zm52.4 24.6a38.3 38.3 0 01-.2-4.9h-.2c-.7 1.6-2 3-3.7 4a12 12 0 01-10.8.7 9 9 0 01-3.4-2.5 11 11 0 01-2-3.8 16 16 0 01-.6-4.7V49.3h5.8v16.2c0 1.2.1 2.3.3 3.4.2 1 .5 2 1 2.9.5.8 1.2 1.5 2 2 1 .4 2 .7 3.4.7a7 7 0 005.7-2.6c1.4-1.8 2.1-4.1 2.1-7V49.2h5.9v23a94.6 94.6 0 00.2 6.3h-5.5zm20.3-4.7v4.7h-5.6V31.8h5.8v21.8h.2a12.3 12.3 0 0110.4-5.2c2.2 0 4.2.4 6 1.2a13.8 13.8 0 017.7 8.2 17.3 17.3 0 010 12 13.7 13.7 0 01-7.6 8.3 15 15 0 01-12.2-.1c-1.9-1-3.4-2.3-4.6-4zm19.5-10c0-1.4-.2-2.7-.6-4-.4-1.3-1-2.4-1.9-3.4-.8-1-1.8-1.8-3-2.4a9.8 9.8 0 00-4.3-.8 9.3 9.3 0 00-7.1 3.2c-1 1-1.6 2.1-2 3.4a11.5 11.5 0 002 11.4c.8 1 1.9 1.7 3 2.3 1.3.6 2.7.9 4.1.9 1.6 0 3-.3 4.3-1a9.2 9.2 0 003-2.3c.9-1 1.5-2.1 1.9-3.4.4-1.3.6-2.6.6-4zm34.8-2.6a11 11 0 00-.6-3.2c-.3-1-.9-2-1.5-2.7a7.3 7.3 0 00-2.6-1.7 9 9 0 00-3.5-.7 9.4 9.4 0 00-6.4 2.4c-.8.8-1.4 1.7-2 2.7-.5 1-.8 2-.8 3.2h17.4zm5.9 2.4v2h-23.3a8.8 8.8 0 002.9 6.3 9.6 9.6 0 006.6 2.6c2 0 3.7-.5 5.1-1.3 1.5-1 2.6-2 3.4-3.2l4.1 3.3c-1.6 2-3.4 3.6-5.5 4.5-2.2 1-4.5 1.5-7.1 1.5-2.2 0-4.3-.4-6.2-1.1a14.3 14.3 0 01-8.1-8c-.8-2-1.2-4-1.2-6.3s.4-4.4 1.2-6.3a14.4 14.4 0 018-8.1c1.8-.8 3.8-1.2 6-1.2 2.1 0 4 .4 5.8 1.1a12 12 0 014.5 3c1.2 1.3 2.1 3 2.8 4.8.6 1.9 1 4 1 6.4zm13.7 9.4h19.6v5.5h-25.7V34.8h6.1V73zm30.3 5.5h-5.8V49.3h5.8v29.3zm1-40c0 1.1-.4 2-1.1 2.7a4 4 0 01-2.8 1 3.8 3.8 0 01-3.8-3.6c0-1.1.3-2 1-2.7.8-.7 1.7-1.1 2.8-1.1 1 0 2 .4 2.8 1 .7.8 1.1 1.7 1.1 2.8zm13.6 10.7a38.3 38.3 0 01.3 4.8h.2c.3-.8.8-1.5 1.5-2.2a11 11 0 018-3.5c1.9 0 3.5.4 4.9 1a9.9 9.9 0 015.4 6.3c.4 1.5.6 3 .6 4.7v18.2h-5.8V62.3c0-1.2 0-2.3-.2-3.4-.2-1-.6-2-1-2.8a5.5 5.5 0 00-2.1-2c-.9-.5-2-.8-3.3-.8a7 7 0 00-5.7 2.7c-1.5 1.7-2.2 4-2.2 7v15.6h-5.8v-23a94.6 94.6 0 00-.3-6.3h5.5zm44.4 4.7h-7.8v15.3c0 1.8.3 3 1 3.8.6.8 1.7 1.1 3.1 1.1a8.9 8.9 0 003.4-.7l.2 4.8a14.1 14.1 0 01-5 .8c-2.7 0-4.8-.8-6.3-2.3-1.5-1.5-2.2-3.8-2.2-6.9V54H371v-4.7h5.6v-8.5h5.8v8.5h7.8V54zm26.6 7.3a11 11 0 00-.5-3.2c-.4-1-1-2-1.6-2.7a7.3 7.3 0 00-2.5-1.7 9 9 0 00-3.6-.7 9.4 9.4 0 00-6.3 2.4c-.8.8-1.5 1.7-2 2.7-.5 1-.8 2-.9 3.2h17.4zm6 2.4v1l-.1 1h-23.3a8.8 8.8 0 003 6.3 9.6 9.6 0 006.5 2.6c2 0 3.7-.5 5.2-1.3 1.4-1 2.5-2 3.4-3.2l4 3.3c-1.5 2-3.4 3.6-5.5 4.5-2.1 1-4.5 1.5-7 1.5-2.3 0-4.4-.4-6.3-1.1a14.3 14.3 0 01-8-8c-.8-2-1.2-4-1.2-6.3s.3-4.4 1.1-6.3a14.4 14.4 0 018-8.1c1.9-.8 3.9-1.2 6-1.2 2.2 0 4.1.4 5.9 1.1a12 12 0 014.4 3c1.2 1.3 2.2 3 2.8 4.8.7 1.9 1 4 1 6.4zm7.2-8.1a94.6 94.6 0 00-.2-6.3h5.5a38.3 38.3 0 01.3 4.9h.1c.9-1.7 2-3.1 3.7-4.2 1.5-1 3.3-1.6 5.3-1.6 1 0 1.7.1 2.3.3l-.2 5.4a11 11 0 00-2.7-.3 7.5 7.5 0 00-6.2 2.8c-.7.9-1.2 1.9-1.5 3-.4 1.1-.5 2.3-.5 3.6v15.4h-5.9v-23z" fill="#293A68" fill-rule="nonzero"/></g></svg>